<svg xmlns="http://www.w3.org/2000/svg" viewBox="0 0 520 390" fill="none"><defs><linearGradient id="bg" x1="28" y1="38" x2="470" y2="360" gradientUnits="userSpaceOnUse"><stop stop-color="#E7F3FF"/><stop offset="1" stop-color="#D6F3E9"/></linearGradient><linearGradient id="screen" x1="212" y1="153" x2="320" y2="246" gradientUnits="userSpaceOnUse"><stop stop-color="#367FCA"/><stop offset="1" stop-color="#20A488"/></linearGradient></defs><rect x="12" y="12" width="496" height="366" rx="34" fill="url(#bg)"/><circle cx="422" cy="88" r="36" fill="#F5C262" opacity=".88"/><path d="M52 298c55-37 101-45 145-25 42 18 84 18 125-5 46-27 101-29 146 4v80H52v-54Z" fill="#BCE3D7"/><path d="M114 276h306v17H114z" fill="#173E60"/><path d="M142 293h12v51h-12zm236 0h12v51h-12z" fill="#173E60"/><rect x="202" y="135" width="132" height="104" rx="10" fill="#173E60"/><rect x="212" y="145" width="112" height="83" rx="5" fill="url(#screen)"/><path d="m235 174 15 12-15 12m34 0h25" stroke="#fff" stroke-width="6" stroke-linecap="round" stroke-linejoin="round"/><path d="m185 242 25-18h115l28 18H185Z" fill="#fff" stroke="#173E60" stroke-width="5" stroke-linejoin="round"/><circle cx="146" cy="147" r="23" fill="#C98252"/><path d="M123 145c1-27 39-35 48-8-12-8-31-4-48 8Z" fill="#173E60"/><path d="M119 215c0-24 12-38 28-38s28 14 28 38v48h-56v-48Z" fill="#367FCA"/><path d="m119 190-17 36m73-36 22 28" stroke="#C98252" stroke-width="11" stroke-linecap="round"/><circle cx="381" cy="155" r="21" fill="#C98252"/><path d="M359 151c1-24 34-34 46-10-12-8-29-3-46 10Z" fill="#173E60"/><path d="M354 216c0-23 11-36 27-36s27 13 27 36v45h-54v-45Z" fill="#20A488"/><path d="m354 191-25 31m79-31 15 32" stroke="#C98252" stroke-width="11" stroke-linecap="round"/><rect x="72" y="82" width="116" height="39" rx="19" fill="#fff"/><circle cx="95" cy="102" r="8" fill="#20A488"/><path d="M112 102h57" stroke="#173E60" stroke-width="5" stroke-linecap="round" opacity=".65"/><rect x="334" y="275" width="91" height="43" rx="12" fill="#fff"/><path d="m353 296 10 10 22-22" stroke="#20A488" stroke-width="5" stroke-linecap="round" stroke-linejoin="round"/></svg>
